HIERARCHY
ROOT Hips
{
	OFFSET 0.000000 0.000000 0.000000
	CHANNELS 6 Xposition Yposition Zposition Zrotation Yrotation Xrotation 
	JOINT LHipJoint
	{
		OFFSET 0.000000 0.000000 0.000000
		CHANNELS 3 Zrotation Yrotation Xrotation
		JOINT LeftUpLeg
		{
			OFFSET 1.363060 -1.794630 0.839290
			CHANNELS 3 Zrotation Yrotation Xrotation
			JOINT LeftLeg
			{
				OFFSET 2.448110 -6.726130 0.000000
				CHANNELS 3 Zrotation Yrotation Xrotation
				JOINT LeftFoot
				{
					OFFSET 2.562200 -7.039590 0.000000
					CHANNELS 3 Zrotation Yrotation Xrotation
					JOINT LeftToeBase
					{
						OFFSET 0.157640 -0.433110 2.322550
						CHANNELS 3 Zrotation Yrotation Xrotation
						End Site
						{
							OFFSET 0.000000 0.000000 0.000000
						}
					}
				}
			}
		}
	}
	JOINT RHipJoint
	{
		OFFSET 0.000000 0.000000 0.000000
		CHANNELS 3 Zrotation Yrotation Xrotation
		JOINT RightUpLeg
		{
			OFFSET -1.305520 -1.794630 0.839290
			CHANNELS 3 Zrotation Yrotation Xrotation
			JOINT RightLeg
			{
				OFFSET -2.542530 -6.985550 0.000000
				CHANNELS 3 Zrotation Yrotation Xrotation
				JOINT RightFoot
				{
					OFFSET -2.568260 -7.056230 0.000000
					CHANNELS 3 Zrotation Yrotation Xrotation
					JOINT RightToeBase
					{
						OFFSET -0.164730 -0.452590 2.363150
						CHANNELS 3 Zrotation Yrotation Xrotation
						End Site
						{
							OFFSET 0.000000 0.000000 0.000000
						}
					}
				}
			}
		}
	}
	JOINT LowerBack
	{
		OFFSET 0.000000 0.000000 0.000000
		CHANNELS 3 Zrotation Yrotation Xrotation
		JOINT Spine
		{
			OFFSET 0.028270 2.035590 -0.193380
			CHANNELS 3 Zrotation Yrotation Xrotation
			JOINT Spine1
			{
				OFFSET 0.056720 2.048850 -0.042750
				CHANNELS 3 Zrotation Yrotation Xrotation
				JOINT Neck
				{
					OFFSET 0.000000 0.000000 0.000000
					CHANNELS 3 Zrotation Yrotation Xrotation
					JOINT Neck1
					{
						OFFSET -0.054170 1.746240 0.172020
						CHANNELS 3 Zrotation Yrotation Xrotation
						JOINT Head
						{
							OFFSET 0.104070 1.761360 -0.123970
							CHANNELS 3 Zrotation Yrotation Xrotation
							End Site
							{
								OFFSET 0.000000 0.000000 0.000000
							}
						}
					}
				}
				JOINT LeftShoulder
				{
					OFFSET 0.000000 0.000000 0.000000
					CHANNELS 3 Zrotation Yrotation Xrotation
					JOINT LeftArm
					{
						OFFSET 3.362410 1.200890 -0.311210
						CHANNELS 3 Zrotation Yrotation Xrotation
						JOINT LeftForeArm
						{
							OFFSET 4.983000 -0.000000 -0.000000
							CHANNELS 3 Zrotation Yrotation Xrotation
							JOINT LeftHand
							{
								OFFSET 3.483560 -0.000000 -0.000000
								CHANNELS 3 Zrotation Yrotation Xrotation
								JOINT LeftFingerBase
								{
									OFFSET 0.000000 0.000000 0.000000
									CHANNELS 3 Zrotation Yrotation Xrotation
									JOINT LeftHandIndex1
									{
										OFFSET 0.715260 -0.000000 -0.000000
										CHANNELS 3 Zrotation Yrotation Xrotation
										End Site
										{
											OFFSET 0.000000 0.000000 0.000000
										}
									}
								}
								JOINT LThumb
								{
									OFFSET 0.000000 0.000000 0.000000
									CHANNELS 3 Zrotation Yrotation Xrotation
									End Site
									{
										OFFSET 0.000000 0.000000 0.000000
									}
								}
							}
						}
					}
				}
				JOINT RightShoulder
				{
					OFFSET 0.000000 0.000000 0.000000
					CHANNELS 3 Zrotation Yrotation Xrotation
					JOINT RightArm
					{
						OFFSET -3.136600 1.374050 -0.404650
						CHANNELS 3 Zrotation Yrotation Xrotation
						JOINT RightForeArm
						{
							OFFSET -5.241900 -0.000000 -0.000000
							CHANNELS 3 Zrotation Yrotation Xrotation
							JOINT RightHand
							{
								OFFSET -3.444170 -0.000000 -0.000000
								CHANNELS 3 Zrotation Yrotation Xrotation
								JOINT RightFingerBase
								{
									OFFSET 0.000000 0.000000 0.000000
									CHANNELS 3 Zrotation Yrotation Xrotation
									JOINT RightHandIndex1
									{
										OFFSET -0.622530 -0.000000 -0.000000
										CHANNELS 3 Zrotation Yrotation Xrotation
										End Site
										{
											OFFSET 0.000000 0.000000 0.000000
										}
									}
								}
								JOINT RThumb
								{
									OFFSET 0.000000 0.000000 0.000000
									CHANNELS 3 Zrotation Yrotation Xrotation
									End Site
									{
										OFFSET 0.000000 0.000000 0.000000
									}
								}
							}
						}
					}
				}
			}
		}
	}
}
MOTION
Frames: 9
Frame Time: 0.008333
1.886272 17.807698 6.672952 176.653843 -72.433238 -165.723558 -0.714351 -1.844752 -1.835945 -13.475072 4.832741 -30.543339 8.850047 17.448167 55.956551 -1.864293 10.650248 -6.875634 0.720300 -5.423500 -15.120400 0.370394 1.775655 -2.286491 9.548027 2.939517 -32.412556 -3.328570 -12.437419 35.399563 0.601082 -5.050136 -4.392502 -0.247900 3.203700 -8.846400 6.527058 -0.434262 15.843884 2.695142 0.608059 -2.932448 6.156372 -0.152723 -2.256843 0.295656 2.183012 -10.976221 0.325509 2.295169 -1.091526 -0.251900 0.920300 3.448700 5.320804 2.462708 0.925024 -89.063489 7.650075 31.413642 60.451308 -61.209764 -29.358210 -0.114078 1.860714 17.539320 12.066027 11.998317 2.292900 -7.125000 0.000000 0.000000 -12.490200 40.110600 1.532900 -1.936787 -3.820949 -1.698509 68.809141 -4.809535 15.967879 -78.341373 61.937284 -52.837414 -0.997442 0.148124 13.735386 -37.230064 -25.465376 17.634300 7.125000 0.000000 0.000000 -7.821200 -60.649100 2.994300 
1.759305 17.752883 6.672050 176.180088 -72.295294 -165.467469 -0.686933 -1.851112 -1.882161 -12.722733 4.606536 -31.023532 8.701382 17.345787 55.447503 -1.958548 11.107144 -7.565134 0.734200 -5.474400 -15.266800 0.356403 1.766881 -2.288791 9.383846 2.953289 -32.429157 -3.563791 -12.737633 36.454803 0.644069 -5.258897 -4.387168 -0.160700 2.583100 -7.120300 6.370609 -0.415639 16.337859 2.628263 0.643671 -2.855262 6.020704 -0.140633 -2.291513 0.406941 2.247393 -10.890246 0.467158 2.367078 -1.272292 -0.215800 0.964500 3.356300 5.300026 2.447954 0.923082 -88.930408 7.560742 30.155265 61.325294 -61.328621 -30.047838 -0.137192 1.842963 17.743924 11.691321 11.910168 2.214900 -7.125000 0.000000 0.000000 -12.779100 40.023200 1.597800 -1.951233 -3.794102 -1.679531 68.783695 -3.936630 15.322625 -77.035291 61.710531 -51.776741 -1.011525 0.177467 14.606752 -38.535376 -25.025451 18.165300 7.125000 0.000000 0.000000 -9.509400 -60.525700 3.618900 
1.632437 17.689750 6.667640 176.027309 -72.284030 -165.541749 -0.653715 -1.855962 -1.932269 -11.801261 4.349231 -31.489058 8.552219 17.237672 54.927856 -2.039907 11.501923 -8.186968 0.747200 -5.521300 -15.401600 0.345274 1.756240 -2.286902 9.335250 2.968681 -32.413811 -3.816151 -13.050727 37.570371 0.683788 -5.462373 -4.548313 -0.099600 2.035100 -5.602600 6.293013 -0.429131 16.799970 2.572384 0.639245 -2.778317 5.873542 -0.148301 -2.312022 0.506132 2.313952 -10.789648 0.621520 2.446467 -1.437221 -0.170500 1.013100 3.265000 5.282331 2.436234 0.919287 -88.780037 7.399470 28.786299 62.059650 -61.402285 -30.671379 -0.155469 1.832376 17.870738 11.442587 11.929935 2.180700 -7.125000 0.000000 0.000000 -12.985700 40.042900 1.618200 -1.969291 -3.765627 -1.659609 68.863322 -2.953371 14.596242 -75.313522 61.401949 -50.356689 -1.020836 0.205474 15.433026 -40.005794 -24.692631 18.873700 7.125000 0.000000 0.000000 -11.409200 -60.575200 4.365500 
1.505470 17.620103 6.659523 176.226282 -72.401776 -165.959590 -0.614106 -1.859030 -1.986476 -10.711116 4.064871 -31.958571 8.399998 17.121631 54.387245 -2.103950 11.814052 -8.726990 0.761600 -5.573300 -15.551100 0.337028 1.744068 -2.280438 9.417829 2.972969 -32.378249 -4.084445 -13.373230 38.737574 0.731064 -5.720725 -4.946834 -0.064800 1.642500 -4.518500 6.294421 -0.471581 17.215680 2.531801 0.600167 -2.704367 5.729425 -0.172657 -2.318162 0.577978 2.380349 -10.690510 0.784945 2.532350 -1.574201 -0.114500 1.065100 3.183300 5.268087 2.427386 0.913535 -88.614426 7.174027 27.308272 62.668892 -61.439016 -31.234211 -0.173837 1.828899 17.850258 11.265622 12.066191 2.181400 -7.125000 0.000000 0.000000 -13.157000 40.174300 1.597000 -1.990391 -3.735419 -1.640244 69.043045 -1.858563 13.785139 -73.177072 60.996812 -48.570435 -1.024598 0.227572 16.165337 -41.664654 -24.558097 19.854900 7.125000 0.000000 0.000000 -13.587900 -60.915300 5.325900 
1.378403 17.545546 6.647799 176.782609 -72.632227 -166.718985 -0.566914 -1.860272 -2.045331 -9.469482 3.767674 -32.450562 8.246719 16.998396 53.830948 -2.149279 12.035625 -9.178165 0.780700 -5.641000 -15.746300 0.331718 1.730821 -2.269482 9.633490 2.965113 -32.326622 -4.365606 -13.700170 39.941549 0.788086 -6.052082 -5.601973 -0.049400 1.434100 -3.944000 6.364526 -0.531116 17.574618 2.506848 0.541477 -2.632605 5.595868 -0.205987 -2.303306 0.612513 2.441664 -10.599131 0.948337 2.619144 -1.684229 -0.049600 1.117300 3.112100 5.257538 2.422518 0.905707 -88.416747 6.862772 25.737597 63.112567 -61.432808 -31.701678 -0.196023 1.829707 17.653493 11.086856 12.292178 2.198300 -7.125000 0.000000 0.000000 -13.350200 40.388600 1.549400 -2.014496 -3.704798 -1.622022 69.321304 -0.657372 12.872109 -70.659829 60.484869 -46.441648 -1.021440 0.242063 16.772023 -43.378298 -24.628989 21.057200 7.125000 0.000000 0.000000 -15.929300 -61.524300 6.499200 
1.250734 17.467983 6.632366 177.656820 -72.974642 -167.786219 -0.512946 -1.860100 -2.108661 -8.109905 3.455375 -32.960432 8.088183 16.865260 53.243440 -2.174940 12.160785 -9.520823 0.806200 -5.730500 -16.004300 0.329209 1.716457 -2.253940 9.965977 2.938688 -32.244855 -4.654691 -14.024535 41.158916 0.858805 -6.483118 -6.493585 -0.047100 1.400400 -3.851100 6.486278 -0.604135 17.879501 2.497266 0.467003 -2.563190 5.481677 -0.246322 -2.269463 0.598365 2.498027 -10.527426 1.097780 2.707166 -1.770660 0.021200 1.169000 3.053100 5.250326 2.421466 0.895491 -88.172297 6.452928 24.086341 63.371662 -61.383443 -32.057818 -0.224859 1.835218 17.288792 10.864116 12.643766 2.230200 -7.125000 0.000000 0.000000 -13.608800 40.718100 1.467700 -2.041360 -3.674860 -1.605656 69.695883 0.641458 11.837896 -67.814023 59.858641 -44.013288 -1.010939 0.246710 17.239420 -45.053909 -24.958051 22.480700 7.125000 0.000000 0.000000 -18.373700 -62.440200 7.930100 
1.122464 17.388816 6.613326 178.788830 -73.407669 -169.105991 -0.453543 -1.859079 -2.175688 -6.678573 3.133069 -33.484185 7.919356 16.719278 52.607437 -2.185349 12.204306 -9.740571 0.834400 -5.827100 -16.283500 0.329021 1.701032 -2.233987 10.385992 2.892279 -32.125050 -4.948889 -14.342492 42.377790 0.941458 -7.010662 -7.574604 -0.053200 1.488200 -4.093200 6.630757 -0.681081 18.143899 2.499981 0.388227 -2.497383 5.392597 -0.287734 -2.227941 0.533992 2.553373 -10.477420 1.208135 2.800221 -1.840797 0.088800 1.220900 3.005300 5.245649 2.422666 0.882331 -87.855327 5.939648 22.381680 63.419378 -61.288265 -32.283138 -0.258132 1.846083 16.808470 10.616011 13.146739 2.283700 -7.125000 0.000000 0.000000 -13.926100 41.187600 1.338600 -2.070182 -3.647034 -1.591663 70.163190 2.016180 10.664042 -64.716341 59.116867 -41.354744 -0.992571 0.241990 17.545427 -46.526285 -25.539267 24.016700 7.125000 0.000000 0.000000 -20.740000 -63.603600 9.562700 
0.993392 17.309349 6.590678 -179.919577 -73.924321 -170.596793 -0.391671 -1.858118 -2.245175 -5.229713 2.793039 -33.999872 7.733096 16.556225 51.899067 -2.181123 12.167076 -9.822795 0.867700 -5.939500 -16.608900 0.330685 1.684536 -2.209972 10.853549 2.810936 -31.943155 -5.242473 -14.647521 43.575152 1.034413 -7.629230 -8.792138 -0.064900 1.643900 -4.522500 6.765819 -0.759836 18.382509 2.511142 0.305393 -2.435325 5.332792 -0.329780 -2.188055 0.424107 2.615850 -10.436787 1.250076 2.906245 -1.908688 0.141100 1.275700 2.961300 5.242603 2.424667 0.866265 -87.437952 5.322889 20.646033 63.206087 -61.137057 -32.341441 -0.288107 1.860335 16.266448 10.412081 13.744890 2.358900 -7.125000 0.000000 0.000000 -14.237100 41.746700 1.168800 -2.099982 -3.623133 -1.579776 70.718900 3.429402 9.357039 -61.477231 58.269637 -38.568867 -0.966218 0.229141 17.632677 -47.638187 -26.358588 25.524200 7.125000 0.000000 0.000000 -22.800700 -64.938900 11.267800 
0.863218 17.230383 6.564623 -178.547124 -74.517131 -172.189578 -0.330163 -1.858174 -2.315734 -3.806639 2.425994 -34.495426 7.524152 16.372864 51.101258 -2.164027 12.055084 -9.760335 0.909100 -6.075800 -17.004600 0.333705 1.667049 -2.182044 11.337403 2.682183 -31.691000 -5.531782 -14.935827 44.736980 1.134349 -8.321736 -10.094431 -0.079300 1.816400 -4.998400 6.869669 -0.838822 18.607548 2.525718 0.219513 -2.380185 5.296871 -0.371769 -2.165819 0.277888 2.692679 -10.389535 1.204486 3.032323 -1.981663 0.168900 1.336100 2.915700 5.239357 2.425674 0.846992 -86.895083 4.623354 18.899777 62.733151 -60.927842 -32.230127 -0.311891 1.877380 15.697038 10.274311 14.433329 2.459700 -7.125000 0.000000 0.000000 -14.525300 42.392600 0.956500 -2.129716 -3.604101 -1.569869 71.362178 4.830180 7.945303 -58.209371 57.333503 -35.762276 -0.931914 0.211075 17.386336 -48.241984 -27.333776 26.786900 7.125000 0.000000 0.000000 -24.235700 -66.290400 12.766000 
